<svg width="18" height="17" viewBox="0 0 18 17" fill="none" xmlns="http://www.w3.org/2000/svg">
    <path d="M14.2174 2.23914H16.3043C16.4888 2.23914 16.6658 2.31244 16.7962 2.4429C16.9267 2.57336 17 2.75029 17 2.93479V15.4565C17 15.641 16.9267 15.818 16.7962 15.9484C16.6658 16.0789 16.4888 16.1522 16.3043 16.1522H1.69565C1.51115 16.1522 1.33422 16.0789 1.20376 15.9484C1.0733 15.818 1 15.641 1 15.4565V2.93479C1 2.75029 1.0733 2.57336 1.20376 2.4429C1.33422 2.31244 1.51115 2.23914 1.69565 2.23914H14.2174Z" stroke="#8B8B8B" stroke-linecap="round" stroke-linejoin="round"/>
    <path d="M5.17383 0.847778V3.63039" stroke="#8B8B8B" stroke-linecap="round" stroke-linejoin="round"/>
    <path d="M12.8262 0.847778V3.63039" stroke="#8B8B8B" stroke-linecap="round" stroke-linejoin="round"/>
    <path d="M1 5.71729H17" stroke="#8B8B8B" stroke-linecap="round" stroke-linejoin="round"/>
</svg>
