<svg width="23" height="16" viewBox="0 0 23 16" fill="none" xmlns="http://www.w3.org/2000/svg">
    <path d="M1 5.07715V12.7114C1 13.848 1.72417 14.7695 2.6175 14.7695H20.3825C21.2758 14.7695 22 13.848 22 12.7114V5.11426" stroke="white" stroke-miterlimit="10"/>
    <path d="M11.416 10.8148C11.6112 11.0101 11.9278 11.0101 12.1231 10.8148L15.3051 7.63281C15.5003 7.43755 15.5003 7.12097 15.3051 6.9257C15.1098 6.73044 14.7932 6.73044 14.598 6.9257L11.7695 9.75413L8.9411 6.9257C8.74584 6.73044 8.42926 6.73044 8.234 6.9257C8.03874 7.12097 8.03874 7.43755 8.234 7.63281L11.416 10.8148ZM11.2695 0.230469L11.2695 10.4612L12.2695 10.4612L12.2695 0.230469L11.2695 0.230469Z" fill="white"/>
</svg>
