<svg width="19" height="14" viewBox="0 0 19 14" fill="none" xmlns="http://www.w3.org/2000/svg">
    <path d="M0.576172 4.17969V10.7637C0.576172 11.744 1.17368 12.5387 1.91077 12.5387H16.5687C17.3058 12.5387 17.9033 11.744 17.9033 10.7637V4.21169" stroke="#828282" stroke-miterlimit="10"/>
    <path d="M9.10738 9.17692C9.30265 9.37218 9.61923 9.37218 9.81449 9.17692L12.9965 5.99494C13.1917 5.79968 13.1917 5.48309 12.9965 5.28783C12.8012 5.09257 12.4846 5.09257 12.2894 5.28783L9.46094 8.11626L6.63251 5.28783C6.43725 5.09257 6.12067 5.09257 5.9254 5.28783C5.73014 5.4831 5.73014 5.79968 5.9254 5.99494L9.10738 9.17692ZM8.96094 2.28446e-08L8.96094 8.82337L9.96094 8.82337L9.96094 -2.28446e-08L8.96094 2.28446e-08Z" fill="#828282"/>
</svg>
