<svg width="9" height="13" viewBox="0 0 9 13" fill="none" xmlns="http://www.w3.org/2000/svg">
    <path fill-rule="evenodd" clip-rule="evenodd" d="M8.5 8C8.5 7.72 8.28 7.5 8 7.5H1C0.72 7.5 0.5 7.72 0.5 8C0.5 8.13 0.55 8.24 0.63 8.33L4.13 12.33C4.22 12.43 4.35 12.5 4.5 12.5C4.65 12.5 4.78 12.43 4.87 12.33L8.37 8.33C8.45 8.24 8.5 8.13 8.5 8Z" fill="#CECECE"/>
    <path fill-rule="evenodd" clip-rule="evenodd" d="M0.5 5C0.5 5.28 0.72 5.5 1 5.5L8 5.5C8.28 5.5 8.5 5.28 8.5 5C8.5 4.87 8.45 4.76 8.37 4.67L4.87 0.67C4.78 0.57 4.65 0.5 4.5 0.5C4.35 0.5 4.22 0.57 4.13 0.67L0.63 4.67C0.55 4.76 0.5 4.87 0.5 5Z" fill="#CECECE"/>
</svg>
