<svg width="16" height="17" viewBox="0 0 16 17" fill="none" xmlns="http://www.w3.org/2000/svg">
    <path d="M11.3671 11.0629C12.3224 9.89113 12.8988 8.37621 12.8988 6.71911C12.8988 3.00779 10.0118 0 6.44941 0C2.88706 0 0 3.00779 0 6.71911C0 10.4304 2.88706 13.4382 6.44941 13.4382C7.87765 13.4382 9.19529 12.9553 10.2635 12.1341L14.9341 17L16 15.8895L11.3671 11.0629ZM6.44941 12.4871C3.39059 12.4871 0.912941 9.90339 0.912941 6.71911C0.912941 3.53482 3.39059 0.951118 6.44941 0.951118C9.50823 0.951118 11.9859 3.53237 11.9859 6.71911C11.9859 9.90584 9.50588 12.4871 6.44941 12.4871Z" fill="#8B8B8B"/>
</svg>
