<svg width="195" height="152" viewBox="0 0 195 152" fill="none" xmlns="http://www.w3.org/2000/svg">
    <g filter="url(#filter0_i_656_16570)">
        <path d="M28.1419 149.576C23.5682 153.062 16.9808 152.204 14.005 147.283C6.49218 134.86 1.83837 120.869 0.443107 106.329C-1.28478 88.3232 2.05355 70.1926 10.0815 53.9829C18.1094 37.7732 30.5074 24.1294 45.8768 14.5909C61.2463 5.0524 78.9754 -0.00128706 97.0642 2.4578e-07C115.153 0.00128755 132.881 5.0575 148.249 14.5982C163.617 24.1389 176.014 37.7844 184.039 53.9953C192.065 70.2061 195.401 88.3372 193.67 106.343C192.273 120.882 187.617 134.873 180.102 147.295C177.126 152.215 170.538 153.072 165.965 149.586C161.392 146.1 160.582 139.594 163.413 134.588C168.654 125.322 171.915 115.025 172.941 104.351C174.3 90.2083 171.68 75.9674 165.377 63.2346C159.073 50.5019 149.337 39.7841 137.266 32.2904C125.195 24.7968 111.27 20.8254 97.0627 20.8244C82.855 20.8234 68.9297 24.7927 56.8579 32.2847C44.7861 39.7767 35.0481 50.4931 28.7426 63.2249C22.4372 75.9567 19.8151 90.1973 21.1723 104.34C22.1965 115.014 25.4567 125.312 30.6965 134.579C33.5268 139.585 32.7157 146.091 28.1419 149.576Z" fill="url(#paint0_angular_656_16570)"/>
    </g>
    <defs>
        <filter id="filter0_i_656_16570" x="0" y="0" width="194.115" height="155.703" filterUnits="userSpaceOnUse" color-interpolation-filters="sRGB">
            <feFlood flood-opacity="0" result="BackgroundImageFix"/>
            <feBlend mode="normal" in="SourceGraphic" in2="BackgroundImageFix" result="shape"/>
            <feColorMatrix in="SourceAlpha" type="matrix" values="0 0 0 0 0 0 0 0 0 0 0 0 0 0 0 0 0 0 127 0" result="hardAlpha"/>
            <feOffset dy="4"/>
            <feGaussianBlur stdDeviation="2"/>
            <feComposite in2="hardAlpha" operator="arithmetic" k2="-1" k3="1"/>
            <feColorMatrix type="matrix" values="0 0 0 0 0 0 0 0 0 0 0 0 0 0 0 0 0 0 0.16 0"/>
            <feBlend mode="normal" in2="shape" result="effect1_innerShadow_656_16570"/>
        </filter>
        <radialGradient id="paint0_angular_656_16570" cx="0" cy="0" r="1" gradientUnits="userSpaceOnUse" gradientTransform="translate(118.517 136.4) rotate(87.3673) scale(61.0592 28.5909)">
            <stop offset="0.1875" stop-color="#89ED0C"/>
            <stop offset="0.395833" stop-color="#FFE620"/>
            <stop offset="0.625" stop-color="#FF9500"/>
            <stop offset="0.661458" stop-color="#DA2525"/>
        </radialGradient>
    </defs>
</svg>
