<svg width="28" height="28" viewBox="0 0 28 28" fill="none" xmlns="http://www.w3.org/2000/svg">
    <circle cx="14" cy="14" r="13.5" stroke="#021F0E"/>
    <path d="M13.0568 20V11.2727H15.1136V20H13.0568ZM14.0909 10.0341C13.7652 10.0341 13.4848 9.92614 13.25 9.71023C13.0152 9.49053 12.8977 9.22727 12.8977 8.92045C12.8977 8.60985 13.0152 8.34659 13.25 8.13068C13.4848 7.91098 13.7652 7.80114 14.0909 7.80114C14.4205 7.80114 14.7008 7.91098 14.9318 8.13068C15.1667 8.34659 15.2841 8.60985 15.2841 8.92045C15.2841 9.22727 15.1667 9.49053 14.9318 9.71023C14.7008 9.92614 14.4205 10.0341 14.0909 10.0341Z" fill="#021F0E"/>
</svg>
