<svg width="20" height="20" viewBox="0 0 20 20" fill="none" xmlns="http://www.w3.org/2000/svg">
    <path d="M2.13032 6.46165C2.96054 4.59508 4.43253 3.08807 6.27909 2.21422C8.12564 1.34037 10.2243 1.15761 12.1941 1.69913C14.1639 2.24065 15.8743 3.47054 17.0146 5.16552C18.155 6.8605 18.6497 8.9082 18.4091 10.9369C18.1685 12.9655 17.2084 14.8406 15.7032 16.2218C14.198 17.603 12.2474 18.3987 10.2055 18.4643C8.16372 18.53 6.16602 17.8614 4.57513 16.5798C2.98424 15.2982 1.90563 13.4887 1.53511 11.4797" stroke="#1E4CDC" stroke-miterlimit="10" stroke-linecap="round"/>
    <path d="M8.64258 6.3891L11.6832 9.42969" stroke="#1E4CDC" stroke-linecap="round" stroke-linejoin="round"/>
    <path d="M8.64258 13.2305L11.6832 9.42974" stroke="#1E4CDC" stroke-linecap="round" stroke-linejoin="round"/>
    <path d="M1.04102 9.42969L11.6831 9.42969" stroke="#1E4CDC" stroke-linecap="round" stroke-linejoin="round"/>
</svg>
