<svg width="140" height="29" viewBox="0 0 140 29" fill="none" xmlns="http://www.w3.org/2000/svg">
    <g clip-path="url(#clip0_656_10528)">
        <path d="M2.5099 9.90308H9.17834C10.1079 9.90308 10.9746 9.99101 11.7775 10.1659C12.5805 10.3418 13.2612 10.6443 13.819 11.0736C14.3768 11.5038 14.7905 12.0824 15.0612 12.8095C15.331 13.5375 15.3911 14.4537 15.2389 15.558C15.0867 16.6453 14.7905 17.5577 14.3512 18.2943C13.9111 19.0308 13.3661 19.6189 12.7153 20.0567C12.0646 20.4954 11.321 20.8064 10.4843 20.9908C9.64769 21.1752 8.75547 21.2669 7.80947 21.2669H4.91863L3.95532 28.5273H0L2.5099 9.90308ZM5.40074 17.7951H8.03823C8.39366 17.7951 8.73906 17.7601 9.07809 17.6901C9.41621 17.6201 9.7288 17.502 10.0159 17.3346C10.303 17.1682 10.5481 16.9403 10.7514 16.651C10.9546 16.3617 11.0813 15.9977 11.1314 15.559C11.1988 15.0853 11.1442 14.7043 10.9664 14.4149C10.7887 14.1256 10.5436 13.9015 10.231 13.7436C9.91837 13.5858 9.56294 13.4855 9.16558 13.4411C8.76823 13.3976 8.38363 13.3749 8.0118 13.3749H5.9831L5.39983 17.7941L5.40074 17.7951Z" fill="black"/>
        <path d="M16.2524 19.2151C16.4556 17.725 16.8821 16.3739 17.5329 15.1637C18.1836 13.9535 18.9947 12.9238 19.9671 12.0729C20.9386 11.2229 22.0505 10.5696 23.3018 10.1129C24.5522 9.65718 25.8791 9.42932 27.2826 9.42932C28.6861 9.42932 29.9447 9.65718 31.0602 10.1129C32.1757 10.5686 33.1053 11.222 33.849 12.0729C34.5927 12.9238 35.1249 13.9535 35.4466 15.1637C35.7674 16.3739 35.8267 17.7241 35.6243 19.2151C35.4211 20.7062 34.9991 22.0563 34.3566 23.2665C33.7141 24.4768 32.903 25.5073 31.9224 26.3573C30.9417 27.2083 29.8308 27.8616 28.5877 28.3173C27.3455 28.7731 26.0222 29.0009 24.6196 29.0009C23.217 29.0009 21.953 28.7731 20.8293 28.3173C19.7046 27.8616 18.7714 27.2083 18.0277 26.3573C17.2841 25.5073 16.7509 24.4768 16.4301 23.2665C16.1084 22.0563 16.0501 20.7062 16.2524 19.2151ZM20.3599 19.2151C20.2414 20.0925 20.2669 20.8943 20.4356 21.6223C20.6042 22.3504 20.8958 22.9819 21.3105 23.5161C21.7242 24.0513 22.2528 24.4673 22.8953 24.7661C23.5378 25.0639 24.2815 25.2133 25.1263 25.2133C25.9712 25.2133 26.7577 25.0648 27.484 24.7661C28.2104 24.4682 28.8529 24.0513 29.4107 23.5161C29.9684 22.9819 30.4286 22.3504 30.7923 21.6223C31.1559 20.8943 31.3965 20.0925 31.515 19.2151C31.6335 18.3557 31.6116 17.5577 31.4512 16.8211C31.2908 16.0846 30.9992 15.4492 30.5763 14.9141C30.1534 14.3799 29.6212 13.9629 28.9787 13.6651C28.3362 13.3673 27.5925 13.2179 26.7477 13.2179C25.9028 13.2179 25.1163 13.3673 24.39 13.6651C23.6627 13.9639 23.0211 14.3799 22.4633 14.9141C21.9056 15.4492 21.4444 16.0846 21.0817 16.8211C20.7181 17.5577 20.4775 18.3557 20.359 19.2151H20.3599Z" fill="black"/>
        <path d="M68.6438 9.90301H80.8396L80.3329 13.6906H72.0924L71.6102 17.1625H79.3942L78.8875 20.9501H71.1035L70.5968 24.7377H79.2939L78.7872 28.5253H66.1348L68.6447 9.90112L68.6438 9.90301Z" fill="black"/>
        <path d="M84.4639 9.90304H91.4113C92.3244 9.90304 93.1775 9.99476 93.9722 10.1791C94.7669 10.3635 95.4431 10.6698 96.0009 11.1C96.5586 11.5302 96.9724 12.1089 97.2431 12.8359C97.5128 13.564 97.573 14.4716 97.4208 15.558C97.2349 16.8732 96.7528 17.9917 95.9754 18.9117C95.198 19.8326 94.1581 20.4159 92.8567 20.6608L96.3554 28.5263H91.6136L88.8494 21.0815H86.8973L85.9084 28.5263H81.9531L84.463 9.9021L84.4639 9.90304ZM87.3803 17.6107H89.7134C90.0688 17.6107 90.4443 17.5974 90.8417 17.571C91.239 17.5445 91.6063 17.466 91.9444 17.3346C92.2825 17.2032 92.5787 16.997 92.8321 16.7162C93.0854 16.4364 93.2458 16.0412 93.3142 15.5325C93.3816 15.0588 93.3397 14.6825 93.1875 14.4017C93.0353 14.1218 92.8239 13.9062 92.5532 13.7569C92.2825 13.6084 91.9654 13.5072 91.6026 13.4543C91.239 13.4013 90.8799 13.3749 90.5254 13.3749H87.939L87.3812 17.6097L87.3803 17.6107Z" fill="black"/>
        <path d="M121.99 21.3453C121.838 22.4506 121.538 23.468 121.09 24.3964C120.641 25.3258 120.054 26.1323 119.327 26.8169C118.6 27.5005 117.738 28.0356 116.741 28.4214C115.743 28.8071 114.627 29 113.393 29C112.159 29 111.069 28.8071 110.173 28.4214C109.278 28.0356 108.559 27.5005 108.018 26.8169C107.477 26.1333 107.109 25.3268 106.915 24.3964C106.721 23.467 106.7 22.4497 106.852 21.3453L108.398 9.9021H112.353L110.832 21.1874C110.748 21.7661 110.76 22.3012 110.871 22.7919C110.98 23.2836 111.175 23.7081 111.454 24.0674C111.733 24.4267 112.079 24.7075 112.494 24.9089C112.908 25.1103 113.377 25.2114 113.901 25.2114C114.425 25.2114 114.919 25.1112 115.385 24.9089C115.849 24.7075 116.268 24.4267 116.64 24.0674C117.011 23.7081 117.319 23.2826 117.566 22.7919C117.811 22.3012 117.976 21.7661 118.06 21.1874L119.581 9.9021H123.537L121.99 21.3453Z" fill="black"/>
        <path d="M127.19 9.90308H133.858C134.788 9.90308 135.654 9.99101 136.457 10.1659C137.26 10.3418 137.941 10.6443 138.499 11.0736C139.056 11.5038 139.47 12.0824 139.741 12.8095C140.011 13.5375 140.071 14.4537 139.919 15.558C139.766 16.6453 139.47 17.5577 139.031 18.2943C138.591 19.0308 138.046 19.6189 137.395 20.0567C136.744 20.4954 136.001 20.8064 135.164 20.9908C134.327 21.1752 133.435 21.2669 132.489 21.2669H129.598L128.635 28.5273H124.68L127.19 9.90308ZM130.08 17.7951H132.718C133.073 17.7951 133.419 17.7601 133.758 17.6901C134.096 17.6201 134.408 17.502 134.696 17.3346C134.983 17.1682 135.228 16.9403 135.431 16.651C135.634 16.3617 135.761 15.9977 135.811 15.559C135.879 15.0853 135.824 14.7043 135.646 14.4149C135.468 14.1256 135.223 13.9015 134.911 13.7436C134.598 13.5858 134.243 13.4855 133.845 13.4411C133.448 13.3976 133.063 13.3749 132.691 13.3749H130.663L130.08 17.7941L130.08 17.7951Z" fill="black"/>
        <path d="M61.5241 9.90308L56.8589 22.1613H56.8078L54.729 9.90308H54.7254L51.9648 15.6375H52.0159L54.2469 28.5273H57.7711L65.5305 9.90308H61.5241Z" fill="#1E4CDC"/>
        <path d="M54.5524 5.33917L52.356 9.90304L49.5955 15.6374L43.9159 28.5273H40.5183L37.7031 9.90304H42.0139L43.257 21.8455H43.3071L46.8231 14.0339L48.6823 9.90304L49.2 8.75616L47.0391 8.96984L51.5413 0L52.0133 5.57081L54.5524 5.33917Z" fill="#1E4CDC"/>
    </g>
    <defs>
        <clipPath id="clip0_656_10528">
            <rect width="140" height="29" fill="white"/>
        </clipPath>
    </defs>
</svg>
