<svg width="20" height="20" viewBox="0 0 20 20" fill="none" xmlns="http://www.w3.org/2000/svg">
    <path d="M5.72693 18.0906L8.81036 14.9993L9.17816 14.6314" stroke="#828282" stroke-width="0.8" stroke-linecap="round" stroke-linejoin="round"/>
    <path d="M2.32251 14.8503L3.83299 13.34L5.85992 11.313" stroke="#828282" stroke-width="0.8" stroke-linecap="round" stroke-linejoin="round"/>
    <path d="M12.4103 5.86609L9.8356 8.44085C9.76225 8.51361 9.70404 8.60018 9.66431 8.69555C9.62458 8.79091 9.60413 8.89321 9.60413 8.99652C9.60413 9.09984 9.62458 9.20213 9.66431 9.2975C9.70404 9.39287 9.76225 9.47944 9.8356 9.55219L10.939 10.6557C11.0118 10.729 11.0983 10.7872 11.1937 10.8269C11.2891 10.8667 11.3914 10.8871 11.4947 10.8871C11.598 10.8871 11.7003 10.8667 11.7957 10.8269C11.891 10.7872 11.9776 10.729 12.0504 10.6557L14.6252 8.08088" stroke="#828282" stroke-width="0.8" stroke-linecap="round" stroke-linejoin="round"/>
    <path d="M14.6254 8.08093C15.0126 8.89281 15.1585 9.79879 15.0457 10.6912C14.9329 11.5836 14.5662 12.4248 13.9891 13.1148C13.412 13.8048 12.6489 14.3145 11.7905 14.5834C10.9321 14.8522 10.0147 14.8688 9.14709 14.6313" stroke="#828282" stroke-width="0.8" stroke-linecap="round" stroke-linejoin="round"/>
    <path d="M5.86005 11.313C5.62251 10.4454 5.63916 9.52787 5.908 8.66949C6.17685 7.81111 6.68664 7.04804 7.37664 6.47098C8.06663 5.89392 8.90783 5.52718 9.80022 5.41438C10.6926 5.30159 11.5986 5.4475 12.4105 5.83473" stroke="#828282" stroke-width="0.8" stroke-linecap="round" stroke-linejoin="round"/>
    <path d="M10 19.1704C14.9706 19.1704 19 15.141 19 10.1704C19 5.19985 14.9706 1.17041 10 1.17041C5.02944 1.17041 1 5.19985 1 10.1704C1 15.141 5.02944 19.1704 10 19.1704Z" stroke="#828282" stroke-width="0.8" stroke-linecap="round" stroke-linejoin="round"/>
</svg>
