<svg width="19" height="20" viewBox="0 0 19 20" fill="none" xmlns="http://www.w3.org/2000/svg">
    <path d="M5.22656 17.4904L8.30999 14.3991L8.6778 14.0312" stroke="#1E4CDC" stroke-linecap="round" stroke-linejoin="round"/>
    <path d="M1.82227 14.2502L3.33274 12.7399L5.35967 10.7129" stroke="#1E4CDC" stroke-linecap="round" stroke-linejoin="round"/>
    <path d="M11.9097 5.26562L9.33499 7.84039C9.26164 7.91314 9.20343 7.99971 9.1637 8.09508C9.12397 8.19045 9.10352 8.29275 9.10352 8.39606C9.10352 8.49937 9.12397 8.60167 9.1637 8.69704C9.20343 8.79241 9.26164 8.87898 9.33499 8.95173L10.4384 10.0552C10.5112 10.1285 10.5977 10.1867 10.6931 10.2265C10.7885 10.2662 10.8908 10.2867 10.9941 10.2867C11.0974 10.2867 11.1997 10.2662 11.295 10.2265C11.3904 10.1867 11.477 10.1285 11.5497 10.0552L14.1246 7.48042" stroke="#1E4CDC" stroke-linecap="round" stroke-linejoin="round"/>
    <path d="M14.1247 7.48047C14.512 8.29234 14.6579 9.19833 14.5451 10.0907C14.4323 10.9831 14.0656 11.8244 13.4885 12.5144C12.9114 13.2044 12.1483 13.714 11.2899 13.9829C10.4315 14.2517 9.51405 14.2684 8.64648 14.0309" stroke="#1E4CDC" stroke-linecap="round" stroke-linejoin="round"/>
    <path d="M5.36005 10.713C5.12251 9.84545 5.13916 8.92789 5.408 8.06951C5.67685 7.21114 6.18664 6.44806 6.87664 5.87101C7.56663 5.29395 8.40783 4.9272 9.30022 4.81441C10.1926 4.70162 11.0986 4.84752 11.9105 5.23476" stroke="#1E4CDC" stroke-linecap="round" stroke-linejoin="round"/>
    <path d="M9.5 18.5703C14.4706 18.5703 18.5 14.5409 18.5 9.57031C18.5 4.59975 14.4706 0.570312 9.5 0.570312C4.52944 0.570312 0.5 4.59975 0.5 9.57031C0.5 14.5409 4.52944 18.5703 9.5 18.5703Z" stroke="#1E4CDC" stroke-linecap="round" stroke-linejoin="round"/>
</svg>
