<svg width="19" height="19" viewBox="0 0 19 19" fill="none" xmlns="http://www.w3.org/2000/svg">
    <circle cx="9.5" cy="9.875" r="8.5" stroke="#1E4CDC"/>
    <path d="M5 10.375L5.35355 10.0214L4.97176 9.63965L4.62037 10.0496L5 10.375ZM8 13.375L7.64645 13.7286L8.01724 14.0993L8.36997 13.7113L8 13.375ZM13.4994 7.85122C13.4863 7.57539 13.252 7.36243 12.9762 7.37557L8.48131 7.58961C8.20548 7.60274 7.99252 7.837 8.00566 8.11283C8.01879 8.38866 8.25305 8.60161 8.52888 8.58848L12.5243 8.39822L12.7146 12.3937C12.7277 12.6695 12.962 12.8825 13.2378 12.8693C13.5137 12.8562 13.7266 12.622 13.7135 12.3461L13.4994 7.85122ZM2.37963 14.2004L5.37963 10.7004L4.62037 10.0496L1.62037 13.5496L2.37963 14.2004ZM4.64645 10.7286L7.64645 13.7286L8.35355 13.0214L5.35355 10.0214L4.64645 10.7286ZM8.36997 13.7113L13.37 8.21134L12.63 7.53866L7.63003 13.0387L8.36997 13.7113Z" fill="#1E4CDC"/>
</svg>
