<svg width="18" height="18" viewBox="0 0 18 18" fill="none" xmlns="http://www.w3.org/2000/svg">
    <circle cx="9" cy="9" r="8.6" stroke="#8B8B8B" stroke-width="0.8"/>
    <path d="M4.5 9.5L4.78284 9.21716L4.47741 8.91172L4.1963 9.23968L4.5 9.5ZM7.5 12.5L7.21716 12.7828L7.51379 13.0795L7.79598 12.7691L7.5 12.5ZM12.8995 6.98097C12.889 6.76031 12.7016 6.58994 12.481 6.60045L8.88505 6.77169C8.66438 6.7822 8.49402 6.9696 8.50453 7.19026C8.51504 7.41092 8.70244 7.58129 8.9231 7.57078L12.1195 7.41857L12.2717 10.615C12.2822 10.8356 12.4696 11.006 12.6903 10.9955C12.9109 10.985 13.0813 10.7976 13.0708 10.5769L12.8995 6.98097ZM1.8037 13.2603L4.8037 9.76032L4.1963 9.23968L1.1963 12.7397L1.8037 13.2603ZM4.21716 9.78284L7.21716 12.7828L7.78284 12.2172L4.78284 9.21716L4.21716 9.78284ZM7.79598 12.7691L12.796 7.26907L12.204 6.73093L7.20402 12.2309L7.79598 12.7691Z" fill="#8B8B8B"/>
</svg>
