<svg width="17" height="16" viewBox="0 0 17 16" fill="none" xmlns="http://www.w3.org/2000/svg">
    <path d="M1 3.60852V13.3911C1 13.7371 1.13744 14.0688 1.38205 14.3134C1.62667 14.558 1.95841 14.6955 2.30435 14.6955H14.6957C15.0416 14.6955 15.3733 14.558 15.6179 14.3134C15.8626 14.0688 16 13.7371 16 13.3911V4.26069C16 4.08773 15.9313 3.92185 15.809 3.79955C15.6867 3.67724 15.5208 3.60852 15.3478 3.60852H2.30435" stroke="#8B8B8B" stroke-width="0.8" stroke-linecap="round" stroke-linejoin="round"/>
    <path d="M12.087 10.7826H16.0001V6.86951H12.087C11.5681 6.86951 11.0705 7.07563 10.7035 7.44255C10.3366 7.80947 10.1305 8.30713 10.1305 8.82603C10.1305 9.34493 10.3366 9.84259 10.7035 10.2095C11.0705 10.5764 11.5681 10.7826 12.087 10.7826Z" stroke="#8B8B8B" stroke-width="0.8" stroke-linecap="round" stroke-linejoin="round"/>
    <path d="M12.087 9.47811C12.4472 9.47811 12.7392 9.18613 12.7392 8.82594C12.7392 8.46576 12.4472 8.17377 12.087 8.17377C11.7268 8.17377 11.4348 8.46576 11.4348 8.82594C11.4348 9.18613 11.7268 9.47811 12.087 9.47811Z" fill="#8B8B8B"/>
    <path d="M2.30435 1C1.95841 1 1.62667 1.13744 1.38205 1.38205C1.13744 1.62667 1 1.95841 1 2.30435C1 2.65028 1.13744 2.98203 1.38205 3.22664C1.62667 3.47125 1.95841 3.6087 2.30435 3.6087" stroke="#8B8B8B" stroke-width="0.8" stroke-linecap="round" stroke-linejoin="round"/>
    <path d="M12.7391 3.6087V1.65217C12.7391 1.47921 12.6704 1.31333 12.5481 1.19103C12.4258 1.06872 12.2599 1 12.0869 1H2.30432" stroke="#8B8B8B" stroke-width="0.8" stroke-linecap="round" stroke-linejoin="round"/>
</svg>
