<svg width="17" height="16" viewBox="0 0 17 16" fill="none" xmlns="http://www.w3.org/2000/svg">
    <path d="M1 3.48364V13.2663C1 13.6122 1.13744 13.9439 1.38205 14.1885C1.62667 14.4332 1.95841 14.5706 2.30435 14.5706H14.6957C15.0416 14.5706 15.3733 14.4332 15.6179 14.1885C15.8626 13.9439 16 13.6122 16 13.2663V4.13582C16 3.96285 15.9313 3.79698 15.809 3.67467C15.6867 3.55236 15.5208 3.48364 15.3478 3.48364H2.30435" stroke="#1E4CDC" stroke-linecap="round" stroke-linejoin="round"/>
    <path d="M12.0874 10.6577H16.0004V6.74463H12.0874C11.5685 6.74463 11.0708 6.95075 10.7039 7.31767C10.337 7.68459 10.1309 8.18225 10.1309 8.70115C10.1309 9.22005 10.337 9.71771 10.7039 10.0846C11.0708 10.4516 11.5685 10.6577 12.0874 10.6577Z" stroke="#1E4CDC" stroke-linecap="round" stroke-linejoin="round"/>
    <path d="M12.2399 8.701C12.2399 8.78505 12.1718 8.85318 12.0877 8.85318C12.0037 8.85318 11.9355 8.78505 11.9355 8.701C11.9355 8.61696 12.0037 8.54883 12.0877 8.54883C12.1718 8.54883 12.2399 8.61696 12.2399 8.701Z" fill="#8B8B8B" stroke="#1E4CDC"/>
    <path d="M2.30435 0.875C1.95841 0.875 1.62667 1.01244 1.38205 1.25705C1.13744 1.50167 1 1.83341 1 2.17935C1 2.52528 1.13744 2.85703 1.38205 3.10164C1.62667 3.34625 1.95841 3.4837 2.30435 3.4837" stroke="#1E4CDC" stroke-linecap="round" stroke-linejoin="round"/>
    <path d="M12.7395 3.4837V1.52717C12.7395 1.35421 12.6707 1.18833 12.5484 1.06603C12.4261 0.94372 12.2603 0.875 12.0873 0.875H2.30469" stroke="#1E4CDC" stroke-linecap="round" stroke-linejoin="round"/>
</svg>
