<svg width="21" height="17" viewBox="0 0 21 17" fill="none" xmlns="http://www.w3.org/2000/svg">
    <path d="M15.9439 4.57589C15.9439 5.24262 15.679 5.88202 15.2076 6.35348C14.7361 6.82493 14.0967 7.08983 13.43 7.08983C12.7632 7.08983 12.1238 6.82493 11.6523 6.35348C11.1809 5.88202 10.916 5.24262 10.916 4.57589V3.08426C10.916 2.41752 11.1809 1.77812 11.6523 1.30667C12.1238 0.83521 12.7632 0.570312 13.43 0.570312C14.0967 0.570312 14.7361 0.83521 15.2076 1.30667C15.679 1.77812 15.9439 2.41752 15.9439 3.08426V4.57589Z" stroke="#1E4CDC" stroke-linecap="round" stroke-linejoin="round"/>
    <path d="M6.72581 5.08639C7.88282 5.08639 8.82076 4.14845 8.82076 2.99144C8.82076 1.83443 7.88282 0.896484 6.72581 0.896484C5.5688 0.896484 4.63086 1.83443 4.63086 2.99144C4.63086 4.14845 5.5688 5.08639 6.72581 5.08639Z" stroke="#1E4CDC" stroke-linecap="round" stroke-linejoin="round"/>
    <path d="M8.82067 9.81273C7.96262 9.19152 6.93029 8.85717 5.87098 8.85742C4.70456 8.85718 3.57434 9.26247 2.67391 10.0039C1.77347 10.7454 1.15883 11.7768 0.93527 12.9216C0.917041 13.0417 0.925143 13.1644 0.959011 13.281C0.99288 13.3977 1.05171 13.5056 1.13142 13.5973C1.21113 13.6889 1.30981 13.7622 1.42064 13.8119C1.53147 13.8617 1.65178 13.8867 1.77325 13.8853H5.87936" stroke="#1E4CDC" stroke-linecap="round" stroke-linejoin="round"/>
    <path d="M13.4302 9.69531C11.8175 9.69498 10.2588 10.276 9.03975 11.3319C7.82075 12.3877 7.02322 13.8476 6.79342 15.4438C6.77652 15.5633 6.78562 15.685 6.82009 15.8006C6.85457 15.9163 6.91361 16.0231 6.99318 16.1138C7.07274 16.2045 7.17096 16.277 7.28111 16.3262C7.39126 16.3755 7.51074 16.4003 7.6314 16.3992H19.229C19.3497 16.4003 19.4692 16.3755 19.5793 16.3262C19.6895 16.277 19.7877 16.2045 19.8673 16.1138C19.9468 16.0231 20.0059 15.9163 20.0404 15.8006C20.0748 15.685 20.0839 15.5633 20.067 15.4438C19.8372 13.8476 19.0397 12.3877 17.8207 11.3319C16.6017 10.276 15.0429 9.69498 13.4302 9.69531Z" stroke="#1E4CDC" stroke-linecap="round" stroke-linejoin="round"/>
</svg>
