<svg width="21" height="18" viewBox="0 0 21 18" fill="none" xmlns="http://www.w3.org/2000/svg">
    <path d="M16.0178 5.00557C16.0178 5.67231 15.7529 6.31171 15.2814 6.78316C14.81 7.25462 14.1706 7.51952 13.5038 7.51952C12.8371 7.51952 12.1976 7.25462 11.7262 6.78316C11.2547 6.31171 10.9899 5.67231 10.9899 5.00557V3.51394C10.9899 2.8472 11.2547 2.20781 11.7262 1.73635C12.1976 1.2649 12.8371 1 13.5038 1C14.1706 1 14.81 1.2649 15.2814 1.73635C15.7529 2.20781 16.0178 2.8472 16.0178 3.51394V5.00557Z" stroke="#828282" stroke-width="0.8" stroke-linecap="round" stroke-linejoin="round"/>
    <path d="M6.79991 5.51681C7.95692 5.51681 8.89486 4.57887 8.89486 3.42186C8.89486 2.26485 7.95692 1.3269 6.79991 1.3269C5.6429 1.3269 4.70496 2.26485 4.70496 3.42186C4.70496 4.57887 5.6429 5.51681 6.79991 5.51681Z" stroke="#828282" stroke-width="0.8" stroke-linecap="round" stroke-linejoin="round"/>
    <path d="M8.89489 10.243C8.03684 9.62182 7.00451 9.28747 5.9452 9.28772C4.77878 9.28748 3.64856 9.69277 2.74812 10.4342C1.84769 11.1757 1.23305 12.2071 1.00949 13.3519C0.991259 13.472 0.999361 13.5947 1.03323 13.7113C1.0671 13.828 1.12592 13.9359 1.20563 14.0275C1.28535 14.1192 1.38403 14.1925 1.49486 14.2422C1.60568 14.2919 1.726 14.317 1.84747 14.3156H5.95358" stroke="#828282" stroke-width="0.8" stroke-linecap="round" stroke-linejoin="round"/>
    <path d="M13.5038 10.1257C11.8911 10.1254 10.3324 10.7065 9.11336 11.7623C7.89436 12.8182 7.09683 14.278 6.86702 15.8743C6.85013 15.9937 6.85923 16.1154 6.8937 16.2311C6.92818 16.3467 6.98722 16.4535 7.06678 16.5442C7.14635 16.6349 7.24457 16.7074 7.35472 16.7566C7.46487 16.8059 7.58435 16.8308 7.705 16.8296H19.3027C19.4233 16.8308 19.5428 16.8059 19.6529 16.7566C19.7631 16.7074 19.8613 16.6349 19.9409 16.5442C20.0204 16.4535 20.0795 16.3467 20.114 16.2311C20.1484 16.1154 20.1575 15.9937 20.1406 15.8743C19.9108 14.278 19.1133 12.8182 17.8943 11.7623C16.6753 10.7065 15.1165 10.1254 13.5038 10.1257Z" stroke="#828282" stroke-width="0.8" stroke-linecap="round" stroke-linejoin="round"/>
</svg>
