<svg width="19" height="19" viewBox="0 0 19 19" fill="none" xmlns="http://www.w3.org/2000/svg">
    <path d="M4.01566 6.44739L2.70739 4.27439L4.27434 2.70743L6.44739 4.01562C6.8666 3.77728 7.31339 3.59111 7.77781 3.46127L8.3913 1H10.6087L11.2222 3.46127C11.6866 3.59111 12.1334 3.77728 12.5526 4.01562L14.7257 2.70743L16.2926 4.27439L14.9843 6.44739C15.2227 6.8666 15.4088 7.31343 15.5387 7.77786L18 8.3913V10.6087L15.5387 11.2221C15.4088 11.6866 15.2227 12.1334 14.9843 12.5526V12.5526L16.2926 14.7256L14.7257 16.2926L12.5526 14.9844C12.1334 15.2227 11.6866 15.4089 11.2222 15.5387L10.6087 18H8.3913L7.77781 15.5387C7.31339 15.4089 6.8666 15.2227 6.44739 14.9844L4.27434 16.2926L2.70739 14.7256L4.01566 12.5526C3.77732 12.1334 3.59116 11.6866 3.46132 11.2221L1 10.6087V8.3913L3.46132 7.77786C3.59116 7.31343 3.77732 6.8666 4.01566 6.44739V6.44739Z" stroke="#828282" stroke-width="0.8" stroke-linecap="round" stroke-linejoin="round"/>
    <path d="M9.50004 12.8261C11.337 12.8261 12.8261 11.337 12.8261 9.50004C12.8261 7.66309 11.337 6.17395 9.50004 6.17395C7.66309 6.17395 6.17395 7.66309 6.17395 9.50004C6.17395 11.337 7.66309 12.8261 9.50004 12.8261Z" stroke="#828282" stroke-width="0.8" stroke-linecap="round" stroke-linejoin="round"/>
</svg>
