<svg width="19" height="19" viewBox="0 0 19 19" fill="none" xmlns="http://www.w3.org/2000/svg">
    <path d="M4.01566 6.0177L2.70739 3.8447L4.27434 2.27775L6.44739 3.58593C6.8666 3.34759 7.31339 3.16142 7.77781 3.03158L8.3913 0.570312H10.6087L11.2222 3.03158C11.6866 3.16142 12.1334 3.34759 12.5526 3.58593L14.7257 2.27775L16.2926 3.8447L14.9843 6.0177C15.2227 6.43691 15.4088 6.88375 15.5387 7.34817L18 7.96162V10.179L15.5387 10.7925C15.4088 11.2569 15.2227 11.7037 14.9843 12.1229V12.1229L16.2926 14.2959L14.7257 15.8629L12.5526 14.5547C12.1334 14.793 11.6866 14.9792 11.2222 15.109L10.6087 17.5703H8.3913L7.77781 15.109C7.31339 14.9792 6.8666 14.793 6.44739 14.5547L4.27434 15.8629L2.70739 14.2959L4.01566 12.1229C3.77732 11.7037 3.59116 11.2569 3.46132 10.7925L1 10.179V7.96162L3.46132 7.34817C3.59116 6.88375 3.77732 6.43691 4.01566 6.0177V6.0177Z" stroke="#1E4CDC" stroke-linecap="round" stroke-linejoin="round"/>
    <path d="M9.49992 12.3963C11.3369 12.3963 12.826 10.9072 12.826 9.07023C12.826 7.23328 11.3369 5.74414 9.49992 5.74414C7.66297 5.74414 6.17383 7.23328 6.17383 9.07023C6.17383 10.9072 7.66297 12.3963 9.49992 12.3963Z" stroke="#1E4CDC" stroke-linecap="round" stroke-linejoin="round"/>
</svg>
