<svg width="17" height="24" viewBox="0 0 17 24" fill="none" xmlns="http://www.w3.org/2000/svg">
    <path d="M1.00036 7.38625C1.00032 8.72338 1.34215 10.0379 1.99281 11.2028C2.64347 12.3677 3.58096 13.3435 4.71466 14.036C5.84836 14.7284 7.13993 15.1141 8.46454 15.1557C9.78915 15.1973 11.102 14.8935 12.2762 14.2735C13.4504 13.6535 14.4462 12.7384 15.1674 11.6167C15.8887 10.4949 16.3109 9.20434 16.3933 7.86979C16.4757 6.53524 16.2155 5.20181 15.6379 3.99838C15.0602 2.79495 14.1847 1.76222 13.0958 1H4.31595C3.29243 1.71439 2.45601 2.66871 1.87851 3.78106C1.30101 4.8934 0.999667 6.13053 1.00036 7.38625V7.38625Z" stroke="#828282" stroke-width="0.5" stroke-miterlimit="10"/>
    <path d="M5.0432 15.1592H12.7072C14.8602 15.1592 16.6055 16.9201 16.6055 19.0924V19.094C16.6055 21.2663 14.8602 23.0272 12.7072 23.0272H5.0432C2.89025 23.0272 1.14495 21.2663 1.14495 19.094V19.0924C1.14495 16.9201 2.89025 15.1592 5.0432 15.1592Z" stroke="#828282" stroke-width="0.5" stroke-miterlimit="10"/>
    <path d="M12.0141 20.9157C10.9271 20.9157 10.0459 20.0266 10.0459 18.9298C10.0459 17.833 10.9271 16.9438 12.0141 16.9438C13.1012 16.9438 13.9824 17.833 13.9824 18.9298C13.9824 20.0266 13.1012 20.9157 12.0141 20.9157Z" stroke="#828282" stroke-width="0.5" stroke-miterlimit="10"/>
    <path d="M8.7037 8.44399C7.93491 8.44399 7.31169 7.81518 7.31169 7.0395C7.31169 6.26382 7.93491 5.63501 8.7037 5.63501C9.47248 5.63501 10.0957 6.26382 10.0957 7.0395C10.0957 7.81518 9.47248 8.44399 8.7037 8.44399Z" stroke="#828282" stroke-width="0.5" stroke-miterlimit="10"/>
    <path d="M12.5904 8.44399C11.8216 8.44399 11.1984 7.81518 11.1984 7.0395C11.1984 6.26382 11.8216 5.63501 12.5904 5.63501C13.3592 5.63501 13.9824 6.26382 13.9824 7.0395C13.9824 7.81518 13.3592 8.44399 12.5904 8.44399Z" stroke="#828282" stroke-width="0.5" stroke-miterlimit="10"/>
    <path d="M4.90682 8.44399C4.13804 8.44399 3.51482 7.81518 3.51482 7.0395C3.51482 6.26382 4.13804 5.63501 4.90682 5.63501C5.67561 5.63501 6.29883 6.26382 6.29883 7.0395C6.29883 7.81518 5.67561 8.44399 4.90682 8.44399Z" stroke="#828282" stroke-width="0.5" stroke-miterlimit="10"/>
    <path d="M6.78182 11.7206C6.01304 11.7206 5.38982 11.0918 5.38982 10.3161C5.38982 9.54043 6.01304 8.91162 6.78182 8.91162C7.55061 8.91162 8.17383 9.54043 8.17383 10.3161C8.17383 11.0918 7.55061 11.7206 6.78182 11.7206Z" stroke="#828282" stroke-width="0.5" stroke-miterlimit="10"/>
    <path d="M10.6217 11.7206C9.85288 11.7206 9.22966 11.0918 9.22966 10.3161C9.22966 9.54043 9.85288 8.91162 10.6217 8.91162C11.3904 8.91162 12.0137 9.54043 12.0137 10.3161C12.0137 11.0918 11.3904 11.7206 10.6217 11.7206Z" stroke="#828282" stroke-width="0.5" stroke-miterlimit="10"/>
    <path d="M10.622 5.38268C10.0261 5.38268 9.54292 4.89521 9.54292 4.29388C9.54292 3.69255 10.0261 3.20508 10.622 3.20508C11.218 3.20508 11.7012 3.69255 11.7012 4.29388C11.7012 4.89521 11.218 5.38268 10.622 5.38268Z" stroke="#828282" stroke-width="0.5" stroke-miterlimit="10"/>
    <path d="M6.7822 5.38268C6.18622 5.38268 5.70308 4.89521 5.70308 4.29388C5.70308 3.69255 6.18622 3.20508 6.7822 3.20508C7.37819 3.20508 7.86133 3.69255 7.86133 4.29388C7.86133 4.89521 7.37819 5.38268 6.7822 5.38268Z" stroke="#828282" stroke-width="0.5" stroke-miterlimit="10"/>
    <path d="M5.70554 20.9157C4.61849 20.9157 3.73726 20.0266 3.73726 18.9298C3.73726 17.833 4.61849 16.9438 5.70554 16.9438C6.7926 16.9438 7.67383 17.833 7.67383 18.9298C7.67383 20.0266 6.7926 20.9157 5.70554 20.9157Z" stroke="#828282" stroke-width="0.5" stroke-miterlimit="10"/>
</svg>
