<svg width="20" height="20" viewBox="0 0 20 20" fill="none" xmlns="http://www.w3.org/2000/svg">
    <path d="M17.5192 5.05178L18.6705 3.90044L16.3704 1.60216L15.2712 2.70388C13.7406 1.59865 11.9012 1.0026 10.0133 1.00001C8.1253 0.997416 6.28431 1.58842 4.75061 2.68943L3.66338 1.60216L1.36517 3.90044L2.49575 5.03105C1.59837 6.38646 1.08482 7.95961 1.00963 9.58344C0.934451 11.2073 1.30044 12.8212 2.06874 14.2537C2.83704 15.6862 3.97896 16.8839 5.37323 17.7196C6.7675 18.5553 8.36207 18.9977 9.98758 19C11.6131 19.0022 13.2089 18.5642 14.6055 17.7323C16.002 16.9005 17.1472 15.706 17.9195 14.2756C18.6917 12.8451 19.0622 11.2323 18.9915 9.60826C18.9208 7.98422 18.4116 6.40966 17.5179 5.05178H17.5192ZM8.42121 3.87469C8.80317 3.49281 9.30572 3.25518 9.84323 3.20229C10.3807 3.14939 10.92 3.28451 11.369 3.58462C11.8181 3.88473 12.1492 4.33125 12.306 4.84813C12.4627 5.365 12.4355 5.92024 12.2288 6.41925C12.0221 6.91826 11.6488 7.33016 11.1724 7.58478C10.6961 7.83941 10.1462 7.92099 9.61649 7.81564C9.08675 7.71029 8.60993 7.42453 8.26726 7.00703C7.92459 6.58953 7.73727 6.06613 7.73721 5.526C7.7366 5.21923 7.79672 4.91538 7.91412 4.63196C8.03152 4.34854 8.20386 4.09117 8.42121 3.87469V3.87469ZM5.6199 12.3342C5.15789 12.3344 4.7062 12.1976 4.32196 11.9411C3.93772 11.6845 3.63821 11.3198 3.46132 10.893C3.28443 10.4661 3.23812 9.99644 3.32824 9.5433C3.41835 9.09015 3.64086 8.67392 3.96759 8.34727C4.29432 8.02062 4.7106 7.79822 5.16375 7.70822C5.61691 7.61822 6.08657 7.66467 6.51333 7.84167C6.94008 8.01868 7.30474 8.3183 7.56117 8.70262C7.81761 9.08694 7.95428 9.53869 7.95391 10.0007C7.95341 10.6195 7.70732 11.2129 7.2697 11.6504C6.83208 12.0879 6.23871 12.3338 5.6199 12.3342V12.3342ZM11.7225 16.1399C11.3404 16.5216 10.8378 16.7591 10.3002 16.8118C9.76273 16.8645 9.22356 16.7292 8.77461 16.4289C8.32566 16.1286 7.9947 15.682 7.83812 15.1651C7.68153 14.6482 7.709 14.093 7.91586 13.594C8.12271 13.0951 8.49614 12.6833 8.97254 12.4289C9.44894 12.1744 9.99883 12.093 10.5285 12.1985C11.0582 12.304 11.5349 12.5899 11.8775 13.0075C12.22 13.425 12.4072 13.9485 12.4071 14.4886C12.4074 14.7954 12.3471 15.0992 12.2296 15.3826C12.1121 15.666 11.9398 15.9233 11.7225 16.1399ZM14.5772 12.3342C14.1153 12.3343 13.6637 12.1974 13.2796 11.9409C12.8955 11.6844 12.5961 11.3197 12.4192 10.893C12.2424 10.4662 12.1961 9.99666 12.2861 9.54361C12.3761 9.09055 12.5985 8.67438 12.9251 8.34771C13.2516 8.02105 13.6677 7.79856 14.1207 7.7084C14.5738 7.61824 15.0433 7.66446 15.4701 7.84119C15.8968 8.01793 16.2616 8.31726 16.5182 8.70131C16.7748 9.08537 16.9118 9.53691 16.9118 9.99882C16.9117 10.618 16.6657 11.2118 16.2279 11.6497C15.7901 12.0877 15.1964 12.3338 14.5772 12.3342Z" stroke="#828282" stroke-width="0.5" stroke-miterlimit="10"/>
    <path d="M8.43555 3.73901L10.0011 5.50022L11.566 7.26075" stroke="#828282" stroke-width="0.5" stroke-miterlimit="10"/>
    <path d="M8.43555 7.26075L10.0011 5.50022L11.566 3.73901" stroke="#828282" stroke-width="0.5" stroke-miterlimit="10"/>
    <path d="M8.43555 12.739L10.0011 14.5002L11.566 16.2608" stroke="#828282" stroke-width="0.5" stroke-miterlimit="10"/>
    <path d="M8.43555 16.2608L10.0011 14.5002L11.566 12.739" stroke="#828282" stroke-width="0.5" stroke-miterlimit="10"/>
    <path d="M14.4997 10.7827C15.04 10.7827 15.478 10.3447 15.478 9.80443C15.478 9.26415 15.04 8.82617 14.4997 8.82617C13.9595 8.82617 13.5215 9.26415 13.5215 9.80443C13.5215 10.3447 13.9595 10.7827 14.4997 10.7827Z" stroke="#828282" stroke-width="0.5" stroke-miterlimit="10"/>
    <path d="M5.49975 10.7827C6.04002 10.7827 6.47801 10.3447 6.47801 9.80443C6.47801 9.26415 6.04002 8.82617 5.49975 8.82617C4.95947 8.82617 4.52148 9.26415 4.52148 9.80443C4.52148 10.3447 4.95947 10.7827 5.49975 10.7827Z" stroke="#828282" stroke-width="0.5" stroke-miterlimit="10"/>
</svg>
